<svg width="27" height="25" viewBox="0 0 27 25" fill="none" xmlns="http://www.w3.org/2000/svg">
<path d="M13.6966 24.3097C20.7393 24.3097 26.4485 19.0127 26.4485 12.4784C26.4485 5.94405 20.7393 0.646973 13.6966 0.646973C6.65387 0.646973 0.944641 5.94405 0.944641 12.4784C0.944641 19.0127 6.65387 24.3097 13.6966 24.3097ZM12.7857 8.25286C12.7857 8.02873 12.8817 7.81378 13.0525 7.65529C13.2233 7.4968 13.455 7.40776 13.6966 7.40776C13.9382 7.40776 14.1698 7.4968 14.3407 7.65529C14.5115 7.81378 14.6074 8.02873 14.6074 8.25286V11.6333H18.2509C18.4924 11.6333 18.7241 11.7223 18.8949 11.8808C19.0657 12.0393 19.1617 12.2542 19.1617 12.4784C19.1617 12.7025 19.0657 12.9174 18.8949 13.0759C18.7241 13.2344 18.4924 13.3235 18.2509 13.3235H14.6074V16.7039C14.6074 16.928 14.5115 17.1429 14.3407 17.3014C14.1698 17.4599 13.9382 17.549 13.6966 17.549C13.455 17.549 13.2233 17.4599 13.0525 17.3014C12.8817 17.1429 12.7857 16.928 12.7857 16.7039V13.3235H9.14232C8.90075 13.3235 8.66907 13.2344 8.49825 13.0759C8.32743 12.9174 8.23147 12.7025 8.23147 12.4784C8.23147 12.2542 8.32743 12.0393 8.49825 11.8808C8.66907 11.7223 8.90075 11.6333 9.14232 11.6333H12.7857V8.25286Z" fill="#3D73DD"/>
</svg>
