<svg width="16" height="17" viewBox="0 0 16 17" fill="none" xmlns="http://www.w3.org/2000/svg">
<path d="M1.8125 1.125C1.51413 1.125 1.22798 1.24353 1.017 1.4545C0.806026 1.66548 0.6875 1.95163 0.6875 2.25V3.375C0.6875 3.67337 0.806026 3.95952 1.017 4.1705C1.22798 4.38147 1.51413 4.5 1.8125 4.5H2.375V14.625C2.375 15.2217 2.61205 15.794 3.03401 16.216C3.45597 16.6379 4.02826 16.875 4.625 16.875H11.375C11.9717 16.875 12.544 16.6379 12.966 16.216C13.3879 15.794 13.625 15.2217 13.625 14.625V4.5H14.1875C14.4859 4.5 14.772 4.38147 14.983 4.1705C15.194 3.95952 15.3125 3.67337 15.3125 3.375V2.25C15.3125 1.95163 15.194 1.66548 14.983 1.4545C14.772 1.24353 14.4859 1.125 14.1875 1.125H10.25C10.25 0.826631 10.1315 0.540483 9.9205 0.329505C9.70952 0.118526 9.42337 0 9.125 0L6.875 0C6.57663 0 6.29048 0.118526 6.0795 0.329505C5.86853 0.540483 5.75 0.826631 5.75 1.125H1.8125ZM5.1875 5.625C5.33668 5.625 5.47976 5.68426 5.58525 5.78975C5.69074 5.89524 5.75 6.03832 5.75 6.1875V14.0625C5.75 14.2117 5.69074 14.3548 5.58525 14.4602C5.47976 14.5657 5.33668 14.625 5.1875 14.625C5.03832 14.625 4.89524 14.5657 4.78975 14.4602C4.68426 14.3548 4.625 14.2117 4.625 14.0625V6.1875C4.625 6.03832 4.68426 5.89524 4.78975 5.78975C4.89524 5.68426 5.03832 5.625 5.1875 5.625ZM8 5.625C8.14918 5.625 8.29226 5.68426 8.39775 5.78975C8.50324 5.89524 8.5625 6.03832 8.5625 6.1875V14.0625C8.5625 14.2117 8.50324 14.3548 8.39775 14.4602C8.29226 14.5657 8.14918 14.625 8 14.625C7.85082 14.625 7.70774 14.5657 7.60225 14.4602C7.49676 14.3548 7.4375 14.2117 7.4375 14.0625V6.1875C7.4375 6.03832 7.49676 5.89524 7.60225 5.78975C7.70774 5.68426 7.85082 5.625 8 5.625ZM11.375 6.1875V14.0625C11.375 14.2117 11.3157 14.3548 11.2102 14.4602C11.1048 14.5657 10.9617 14.625 10.8125 14.625C10.6633 14.625 10.5202 14.5657 10.4148 14.4602C10.3093 14.3548 10.25 14.2117 10.25 14.0625V6.1875C10.25 6.03832 10.3093 5.89524 10.4148 5.78975C10.5202 5.68426 10.6633 5.625 10.8125 5.625C10.9617 5.625 11.1048 5.68426 11.2102 5.78975C11.3157 5.89524 11.375 6.03832 11.375 6.1875Z" fill="#3D73DD"/>
</svg>
