<svg width="25" height="25" viewBox="0 0 25 25" fill="none" xmlns="http://www.w3.org/2000/svg">
<path d="M24.1908 3.15253C24.3426 3.30483 24.4279 3.51111 24.4279 3.72615C24.4279 3.9412 24.3426 4.14748 24.1908 4.29978L22.4959 5.99628L19.2459 2.74628L20.9408 1.04978C21.0931 0.897458 21.2998 0.81189 21.5152 0.81189C21.7307 0.81189 21.9373 0.897458 22.0896 1.04978L24.1908 3.1509V3.15253ZM21.347 7.14353L18.097 3.89353L7.0259 14.9663C6.93647 15.0557 6.86914 15.1648 6.82928 15.2848L5.52115 19.2075C5.49743 19.279 5.49406 19.3557 5.51142 19.4291C5.52879 19.5024 5.5662 19.5694 5.61948 19.6227C5.67275 19.676 5.7398 19.7134 5.81312 19.7308C5.88644 19.7481 5.96314 19.7448 6.03465 19.721L9.9574 18.4129C10.0773 18.3735 10.1863 18.3068 10.2759 18.2179L21.347 7.14515V7.14353Z" fill="#8E8E8E"/>
<path fill-rule="evenodd" clip-rule="evenodd" d="M0.625 21.9375C0.625 22.584 0.881807 23.204 1.33893 23.6611C1.79605 24.1182 2.41603 24.375 3.0625 24.375H20.9375C21.584 24.375 22.204 24.1182 22.6611 23.6611C23.1182 23.204 23.375 22.584 23.375 21.9375V12.1875C23.375 11.972 23.2894 11.7653 23.137 11.613C22.9847 11.4606 22.778 11.375 22.5625 11.375C22.347 11.375 22.1403 11.4606 21.988 11.613C21.8356 11.7653 21.75 11.972 21.75 12.1875V21.9375C21.75 22.153 21.6644 22.3597 21.512 22.512C21.3597 22.6644 21.153 22.75 20.9375 22.75H3.0625C2.84701 22.75 2.64035 22.6644 2.48798 22.512C2.3356 22.3597 2.25 22.153 2.25 21.9375V4.0625C2.25 3.84701 2.3356 3.64035 2.48798 3.48798C2.64035 3.3356 2.84701 3.25 3.0625 3.25H13.625C13.8405 3.25 14.0472 3.1644 14.1995 3.01202C14.3519 2.85965 14.4375 2.65299 14.4375 2.4375C14.4375 2.22201 14.3519 2.01535 14.1995 1.86298C14.0472 1.7106 13.8405 1.625 13.625 1.625H3.0625C2.41603 1.625 1.79605 1.88181 1.33893 2.33893C0.881807 2.79605 0.625 3.41603 0.625 4.0625V21.9375Z" fill="#8E8E8E"/>
</svg>
