<svg width="29" height="28" viewBox="0 0 29 28" fill="none" xmlns="http://www.w3.org/2000/svg">
<g filter="url(#filter0_d_135_176)">
<path d="M27.1875 6.24992C27.1875 5.28851 26.8056 4.36647 26.1258 3.68665C25.4459 3.00684 24.5239 2.62492 23.5625 2.62492H22.6562V1.74416C22.6562 1.25648 22.2813 0.837906 21.7936 0.81355C21.6711 0.807646 21.5486 0.826682 21.4337 0.869503C21.3187 0.912324 21.2136 0.97804 21.1248 1.06267C21.036 1.1473 20.9653 1.24907 20.917 1.36183C20.8687 1.4746 20.8438 1.59599 20.8438 1.71867V2.62492H8.15625V1.74416C8.15625 1.25648 7.78129 0.837906 7.29361 0.81355C7.17108 0.807646 7.04862 0.826682 6.93366 0.869503C6.8187 0.912324 6.71364 0.97804 6.62482 1.06267C6.53601 1.1473 6.46531 1.24907 6.41699 1.36183C6.36868 1.4746 6.34376 1.59599 6.34375 1.71867V2.62492H5.4375C4.47609 2.62492 3.55406 3.00684 2.87424 3.68665C2.19442 4.36647 1.8125 5.28851 1.8125 6.24992V6.9296C1.8125 6.98969 1.83637 7.04732 1.87886 7.08981C1.92135 7.1323 1.97897 7.15617 2.03906 7.15617H26.9609C27.021 7.15617 27.0787 7.1323 27.1211 7.08981C27.1636 7.04732 27.1875 6.98969 27.1875 6.9296V6.24992ZM1.8125 22.5624C1.8125 23.5238 2.19442 24.4459 2.87424 25.1257C3.55406 25.8055 4.47609 26.1874 5.4375 26.1874H23.5625C24.5239 26.1874 25.4459 25.8055 26.1258 25.1257C26.8056 24.4459 27.1875 23.5238 27.1875 22.5624V9.19523C27.1875 9.13514 27.1636 9.07751 27.1211 9.03502C27.0787 8.99254 27.021 8.96867 26.9609 8.96867H2.03906C1.97897 8.96867 1.92135 8.99254 1.87886 9.03502C1.83637 9.07751 1.8125 9.13514 1.8125 9.19523V22.5624Z" fill="#3D73DD"/>
<path d="M22.1562 2.62492V3.12492H22.6562H23.5625C24.3913 3.12492 25.1862 3.45416 25.7722 4.04021C26.3583 4.62626 26.6875 5.42112 26.6875 6.24992V6.65617H2.3125V6.24992C2.3125 5.42112 2.64174 4.62626 3.22779 4.04021C3.81384 3.45416 4.6087 3.12492 5.4375 3.12492H6.34375H6.84375V2.62492V1.71871C6.84375 1.7187 6.84375 1.71868 6.84375 1.71867C6.84376 1.66369 6.85493 1.60929 6.87658 1.55875C6.89824 1.50821 6.92994 1.46258 6.96975 1.42464C7.00956 1.38671 7.05666 1.35725 7.10819 1.33805C7.15959 1.31891 7.21432 1.31037 7.2691 1.31295C7.47396 1.32342 7.65625 1.50623 7.65625 1.74416V2.62492V3.12492H8.15625H20.8438H21.3438V2.62492V1.71871C21.3438 1.7187 21.3438 1.71868 21.3438 1.71867C21.3438 1.66369 21.3549 1.60929 21.3766 1.55875C21.3982 1.5082 21.4299 1.46258 21.4697 1.42464C21.5096 1.38671 21.5567 1.35725 21.6082 1.33805C21.6596 1.31891 21.7143 1.31037 21.7691 1.31295C21.974 1.32342 22.1562 1.50623 22.1562 1.74416V2.62492ZM3.22779 24.7721C2.64174 24.1861 2.3125 23.3912 2.3125 22.5624V9.46867H26.6875V22.5624C26.6875 23.3912 26.3583 24.1861 25.7722 24.7721C25.1862 25.3582 24.3913 25.6874 23.5625 25.6874H5.4375C4.6087 25.6874 3.81384 25.3582 3.22779 24.7721Z" stroke="black"/>
</g>
<defs>
<filter id="filter0_d_135_176" x="-2.1875" y="0.8125" width="33.375" height="33.375" filterUnits="userSpaceOnUse" color-interpolation-filters="sRGB">
<feFlood flood-opacity="0" result="BackgroundImageFix"/>
<feColorMatrix in="SourceAlpha" type="matrix" values="0 0 0 0 0 0 0 0 0 0 0 0 0 0 0 0 0 0 127 0" result="hardAlpha"/>
<feOffset dy="4"/>
<feGaussianBlur stdDeviation="2"/>
<feComposite in2="hardAlpha" operator="out"/>
<feColorMatrix type="matrix" values="0 0 0 0 0 0 0 0 0 0 0 0 0 0 0 0 0 0 0.25 0"/>
<feBlend mode="normal" in2="BackgroundImageFix" result="effect1_dropShadow_135_176"/>
<feBlend mode="normal" in="SourceGraphic" in2="effect1_dropShadow_135_176" result="shape"/>
</filter>
</defs>
</svg>
