<svg width="67" height="59" viewBox="0 0 67 59" fill="none" xmlns="http://www.w3.org/2000/svg">
<path d="M55.9004 33.4274V46.508C55.9004 49.7713 54.7846 52.5616 52.5528 54.8788C50.3211 57.196 47.6337 58.3546 44.4908 58.3546H11.5296C8.3867 58.3546 5.69936 57.196 3.46761 54.8788C1.23587 52.5616 0.119995 49.7713 0.119995 46.508V12.2846C0.119995 9.02127 1.23587 6.23102 3.46761 3.91381C5.69936 1.59659 8.3867 0.437988 11.5296 0.437988H44.4908C46.1547 0.437988 47.6998 0.780771 49.126 1.46634C49.5221 1.6583 49.7598 1.97366 49.8391 2.41242C49.9183 2.8786 49.7994 3.27623 49.4825 3.6053L47.5413 5.62087C47.2772 5.89509 46.9735 6.03221 46.6301 6.03221C46.5509 6.03221 46.432 6.00478 46.2735 5.94994C45.6661 5.7854 45.0718 5.70313 44.4908 5.70313H11.5296C9.78649 5.70313 8.29426 6.34757 7.05293 7.63643C5.81161 8.92529 5.19094 10.4747 5.19094 12.2846V46.508C5.19094 48.3179 5.81161 49.8673 7.05293 51.1562C8.29426 52.445 9.78649 53.0894 11.5296 53.0894H44.4908C46.2339 53.0894 47.7262 52.445 48.9675 51.1562C50.2088 49.8673 50.8295 48.3179 50.8295 46.508V36.06C50.8295 35.7035 50.9483 35.4018 51.186 35.155L53.7215 32.5225C53.9856 32.2482 54.2893 32.1111 54.6327 32.1111C54.7912 32.1111 54.9496 32.1523 55.1081 32.2345C55.6363 32.4539 55.9004 32.8515 55.9004 33.4274ZM65.0519 13.3129L32.8038 46.796C32.17 47.4541 31.4173 47.7832 30.5457 47.7832C29.6741 47.7832 28.9214 47.4541 28.2875 46.796L11.2523 29.1084C10.6184 28.4502 10.3015 27.6687 10.3015 26.7637C10.3015 25.8588 10.6184 25.0772 11.2523 24.4191L15.6102 19.8943C16.244 19.2362 16.9967 18.9071 17.8683 18.9071C18.7399 18.9071 19.4926 19.2362 20.1265 19.8943L30.5457 30.7126L56.1777 4.09891C56.8116 3.44077 57.5643 3.1117 58.4359 3.1117C59.3075 3.1117 60.0602 3.44077 60.6941 4.09891L65.0519 8.62364C65.6858 9.28179 66.0027 10.0633 66.0027 10.9683C66.0027 11.8732 65.6858 12.6548 65.0519 13.3129Z" fill="#FFD821"/>
</svg>
