<svg width="27" height="27" viewBox="0 0 27 27" fill="none" xmlns="http://www.w3.org/2000/svg">
<path d="M26.1875 6.24992C26.1875 5.28851 25.8056 4.36647 25.1258 3.68665C24.4459 3.00684 23.5239 2.62492 22.5625 2.62492H21.6562V1.74416C21.6562 1.25648 21.2813 0.837906 20.7936 0.81355C20.6711 0.807646 20.5486 0.826682 20.4337 0.869503C20.3187 0.912324 20.2136 0.97804 20.1248 1.06267C20.036 1.1473 19.9653 1.24907 19.917 1.36183C19.8687 1.4746 19.8438 1.59599 19.8438 1.71867V2.62492H7.15625V1.74416C7.15625 1.25648 6.78129 0.837906 6.29361 0.81355C6.17108 0.807646 6.04862 0.826682 5.93366 0.869503C5.8187 0.912324 5.71364 0.97804 5.62482 1.06267C5.53601 1.1473 5.46531 1.24907 5.41699 1.36183C5.36868 1.4746 5.34376 1.59599 5.34375 1.71867V2.62492H4.4375C3.47609 2.62492 2.55406 3.00684 1.87424 3.68665C1.19442 4.36647 0.8125 5.28851 0.8125 6.24992V6.9296C0.8125 6.98969 0.83637 7.04732 0.878859 7.08981C0.921347 7.1323 0.978974 7.15617 1.03906 7.15617H25.9609C26.021 7.15617 26.0787 7.1323 26.1211 7.08981C26.1636 7.04732 26.1875 6.98969 26.1875 6.9296V6.24992ZM0.8125 22.5624C0.8125 23.5238 1.19442 24.4459 1.87424 25.1257C2.55406 25.8055 3.47609 26.1874 4.4375 26.1874H22.5625C23.5239 26.1874 24.4459 25.8055 25.1258 25.1257C25.8056 24.4459 26.1875 23.5238 26.1875 22.5624V9.19523C26.1875 9.13514 26.1636 9.07751 26.1211 9.03502C26.0787 8.99254 26.021 8.96867 25.9609 8.96867H1.03906C0.978974 8.96867 0.921347 8.99254 0.878859 9.03502C0.83637 9.07751 0.8125 9.13514 0.8125 9.19523V22.5624Z" fill="#6B6B6B"/>
</svg>
