<svg width="19" height="20" viewBox="0 0 19 20" fill="none" xmlns="http://www.w3.org/2000/svg">
<path d="M17.25 16.4166H6.25M0.75 3.58325H4.41667H0.75ZM17.25 3.58325H8.08333H17.25ZM0.75 9.99992H11.75H0.75ZM17.25 9.99992H15.4167H17.25ZM0.75 16.4166H2.58333H0.75Z" stroke="black" stroke-width="2" stroke-linecap="round"/>
<path d="M6.24984 5.41667C7.26236 5.41667 8.08317 4.59586 8.08317 3.58333C8.08317 2.57081 7.26236 1.75 6.24984 1.75C5.23732 1.75 4.4165 2.57081 4.4165 3.58333C4.4165 4.59586 5.23732 5.41667 6.24984 5.41667Z" stroke="black" stroke-width="2" stroke-linecap="round"/>
<path d="M13.5833 11.8334C14.5959 11.8334 15.4167 11.0126 15.4167 10.0001C15.4167 8.98756 14.5959 8.16675 13.5833 8.16675C12.5708 8.16675 11.75 8.98756 11.75 10.0001C11.75 11.0126 12.5708 11.8334 13.5833 11.8334Z" stroke="black" stroke-width="2" stroke-linecap="round"/>
<path d="M4.41683 18.2499C5.42935 18.2499 6.25016 17.4291 6.25016 16.4166C6.25016 15.4041 5.42935 14.5833 4.41683 14.5833C3.40431 14.5833 2.5835 15.4041 2.5835 16.4166C2.5835 17.4291 3.40431 18.2499 4.41683 18.2499Z" stroke="black" stroke-width="2" stroke-linecap="round"/>
</svg>
