<svg width="27" height="27" viewBox="0 0 27 27" fill="none" xmlns="http://www.w3.org/2000/svg">
<path d="M26.1875 6.25004C26.1875 5.28863 25.8056 4.3666 25.1258 3.68678C24.4459 3.00696 23.5239 2.62504 22.5625 2.62504H21.6562V1.74428C21.6562 1.2566 21.2813 0.838028 20.7936 0.813672C20.6711 0.807768 20.5486 0.826804 20.4337 0.869625C20.3187 0.912446 20.2136 0.978162 20.1248 1.06279C20.036 1.14742 19.9653 1.2492 19.917 1.36196C19.8687 1.47472 19.8438 1.59611 19.8438 1.71879V2.62504H7.15625V1.74428C7.15625 1.2566 6.78129 0.838028 6.29361 0.813672C6.17108 0.807768 6.04862 0.826804 5.93366 0.869625C5.8187 0.912446 5.71364 0.978162 5.62482 1.06279C5.53601 1.14742 5.46531 1.2492 5.41699 1.36196C5.36868 1.47472 5.34376 1.59611 5.34375 1.71879V2.62504H4.4375C3.47609 2.62504 2.55406 3.00696 1.87424 3.68678C1.19442 4.3666 0.8125 5.28863 0.8125 6.25004V6.92973C0.8125 6.98981 0.83637 7.04744 0.878859 7.08993C0.921347 7.13242 0.978974 7.15629 1.03906 7.15629H25.9609C26.021 7.15629 26.0787 7.13242 26.1211 7.08993C26.1636 7.04744 26.1875 6.98981 26.1875 6.92973V6.25004ZM0.8125 22.5625C0.8125 23.5239 1.19442 24.446 1.87424 25.1258C2.55406 25.8056 3.47609 26.1875 4.4375 26.1875H22.5625C23.5239 26.1875 24.4459 25.8056 25.1258 25.1258C25.8056 24.446 26.1875 23.5239 26.1875 22.5625V9.19535C26.1875 9.13526 26.1636 9.07764 26.1211 9.03515C26.0787 8.99266 26.021 8.96879 25.9609 8.96879H1.03906C0.978974 8.96879 0.921347 8.99266 0.878859 9.03515C0.83637 9.07764 0.8125 9.13526 0.8125 9.19535V22.5625Z" fill="#6B6B6B"/>
</svg>
