<svg width="27" height="27" viewBox="0 0 27 27" fill="none" xmlns="http://www.w3.org/2000/svg">
<path d="M22.5625 2.62504H21.6562V1.74428C21.6562 1.2566 21.2813 0.838028 20.7936 0.813672C20.6711 0.807768 20.5486 0.826804 20.4337 0.869625C20.3187 0.912446 20.2136 0.978162 20.1248 1.06279C20.036 1.14742 19.9653 1.2492 19.917 1.36196C19.8687 1.47472 19.8438 1.59611 19.8438 1.71879V2.62504H7.15625V1.74428C7.15625 1.2566 6.78129 0.838028 6.29361 0.813672C6.17108 0.807768 6.04862 0.826804 5.93366 0.869625C5.8187 0.912446 5.71364 0.978162 5.62482 1.06279C5.53601 1.14742 5.46531 1.2492 5.41699 1.36196C5.36868 1.47472 5.34376 1.59611 5.34375 1.71879V2.62504H4.4375C3.47609 2.62504 2.55406 3.00696 1.87424 3.68678C1.19442 4.3666 0.8125 5.28863 0.8125 6.25004V6.92973C0.8125 6.98982 0.83637 7.04744 0.878859 7.08993C0.921347 7.13242 0.978974 7.15629 1.03906 7.15629H25.9609C26.021 7.15629 26.0787 7.13242 26.1211 7.08993C26.1636 7.04744 26.1875 6.98982 26.1875 6.92973V6.25004C26.1875 5.28863 25.8056 4.3666 25.1258 3.68678C24.4459 3.00696 23.5239 2.62504 22.5625 2.62504ZM25.9609 8.96879H1.03906C0.978974 8.96879 0.921347 8.99266 0.878859 9.03515C0.83637 9.07764 0.8125 9.13526 0.8125 9.19535V22.5625C0.8125 23.524 1.19442 24.446 1.87424 25.1258C2.55406 25.8056 3.47609 26.1875 4.4375 26.1875H22.5625C23.5239 26.1875 24.4459 25.8056 25.1258 25.1258C25.8056 24.446 26.1875 23.524 26.1875 22.5625V9.19535C26.1875 9.13526 26.1636 9.07764 26.1211 9.03515C26.0787 8.99266 26.021 8.96879 25.9609 8.96879ZM12.57 21.7186C11.8806 22.2629 10.9415 22.5625 9.92484 22.5625C8.34627 22.5625 7.17891 21.5339 6.65895 20.6538C6.53652 20.4467 6.50133 20.1996 6.56114 19.9666C6.62094 19.7337 6.77083 19.5341 6.97783 19.4116C7.18484 19.2892 7.432 19.254 7.66494 19.3138C7.89788 19.3736 8.09753 19.5235 8.21996 19.7305C8.28113 19.8347 8.8515 20.75 9.92484 20.75C10.8685 20.75 11.9707 20.3371 11.9707 19.1743C11.9707 18.8203 11.9016 18.3275 11.5742 17.9916C11.0905 17.4966 10.2856 17.274 9.86877 17.274C9.62842 17.274 9.39791 17.1785 9.22795 17.0086C9.058 16.8386 8.96252 16.6081 8.96252 16.3678C8.96252 16.1274 9.058 15.8969 9.22795 15.7269C9.39791 15.557 9.62842 15.4615 9.86877 15.4615C10.1435 15.4615 10.8549 15.3142 11.3006 14.8583C11.4212 14.7397 11.5164 14.5978 11.5804 14.4412C11.6444 14.2846 11.6758 14.1166 11.6728 13.9475C11.6728 12.6317 10.0512 12.5938 9.8665 12.5938C8.88436 12.5938 8.51846 13.1947 8.50316 13.2202C8.44429 13.3258 8.36489 13.4185 8.26964 13.4929C8.17439 13.5673 8.06522 13.622 7.94855 13.6535C7.83187 13.6851 7.71006 13.6931 7.59028 13.6769C7.4705 13.6607 7.35517 13.6207 7.25107 13.5593C7.14698 13.4978 7.05623 13.4162 6.98416 13.3191C6.91209 13.2221 6.86016 13.1116 6.83143 12.9942C6.80269 12.8768 6.79774 12.7548 6.81685 12.6355C6.83596 12.5161 6.87876 12.4018 6.94271 12.2993C7.37545 11.5629 8.37119 10.7813 9.8665 10.7813C10.7977 10.7813 11.6654 11.0515 12.3094 11.5414C13.0678 12.1191 13.4853 12.9733 13.4853 13.9475C13.4878 14.3514 13.4104 14.7518 13.2573 15.1256C13.1043 15.4994 12.8788 15.8392 12.5938 16.1253C12.5286 16.1922 12.4601 16.2545 12.3904 16.3151C12.5606 16.438 12.7201 16.575 12.8673 16.7246C13.4654 17.3363 13.7815 18.1831 13.7815 19.1743C13.7832 20.1972 13.3522 21.1006 12.57 21.7186ZM19.8438 21.4297C19.8438 21.6701 19.7483 21.9006 19.5783 22.0705C19.4084 22.2405 19.1779 22.336 18.9375 22.336C18.6971 22.336 18.4666 22.2405 18.2967 22.0705C18.1267 21.9006 18.0312 21.6701 18.0312 21.4297V13.5165L16.7563 14.4561C16.6605 14.5268 16.5517 14.5779 16.4361 14.6065C16.3206 14.6351 16.2005 14.6407 16.0828 14.6229C15.9651 14.6052 15.852 14.5644 15.7501 14.5029C15.6482 14.4414 15.5593 14.3605 15.4887 14.2647C15.418 14.1689 15.3669 14.0601 15.3383 13.9445C15.3096 13.829 15.3041 13.7089 15.3218 13.5912C15.3396 13.4735 15.3804 13.3605 15.4419 13.2585C15.5033 13.1566 15.5843 13.0677 15.6801 12.9971L18.1394 11.1846C18.2952 11.0698 18.4835 11.0079 18.677 11.0079H18.9375C19.1779 11.0079 19.4084 11.1033 19.5783 11.2733C19.7483 11.4432 19.8438 11.6737 19.8438 11.9141V21.4297Z" fill="#6B6B6B"/>
</svg>
