<svg width="22" height="21" viewBox="0 0 22 21" fill="none" xmlns="http://www.w3.org/2000/svg">
<g filter="url(#filter0_d_175_921)">
<path fill-rule="evenodd" clip-rule="evenodd" d="M11.0002 18.2499C15.5565 18.2499 19.2502 14.5562 19.2502 9.99992C19.2502 5.44363 15.5565 1.74992 11.0002 1.74992C6.44387 1.74992 2.75016 5.44363 2.75016 9.99992C2.75016 14.5562 6.44387 18.2499 11.0002 18.2499ZM11.0002 19.1666C16.0629 19.1666 20.1668 15.0627 20.1668 9.99992C20.1668 4.93717 16.0629 0.833252 11.0002 0.833252C5.93741 0.833252 1.8335 4.93717 1.8335 9.99992C1.8335 15.0627 5.93741 19.1666 11.0002 19.1666Z" fill="black"/>
<path d="M5.5 15.3303C5.5 14.8569 5.85383 14.4567 6.325 14.4045C9.86104 14.0131 12.155 14.0484 15.6832 14.4132C15.8594 14.4317 16.0264 14.5011 16.1638 14.6129C16.3012 14.7248 16.403 14.8742 16.4569 15.043C16.5108 15.2118 16.5143 15.3926 16.4671 15.5633C16.4199 15.7341 16.324 15.8874 16.1911 16.0045C12.0271 19.6341 9.64746 19.5841 5.79333 16.0082C5.60542 15.834 5.5 15.5865 5.5 15.3308V15.3303Z" fill="black"/>
<path fill-rule="evenodd" clip-rule="evenodd" d="M15.6364 14.8688C12.1361 14.5068 9.87512 14.4728 6.37529 14.8601C6.26008 14.8736 6.15388 14.929 6.077 15.0158C6.00013 15.1027 5.95799 15.2149 5.95866 15.3308C5.95866 15.4619 6.0132 15.5861 6.10533 15.6723C8.01566 17.4442 9.46308 18.2449 10.878 18.25C12.2979 18.255 13.8232 17.4607 15.8903 15.6595C15.956 15.601 16.0032 15.5247 16.0264 15.4399C16.0495 15.3551 16.0475 15.2654 16.0206 15.1817C15.9937 15.098 15.9431 15.0239 15.8749 14.9685C15.8066 14.913 15.7238 14.8785 15.6364 14.8693V14.8688ZM6.27491 13.949C9.84808 13.5534 12.1755 13.5892 15.7312 13.9572C15.9963 13.9849 16.2475 14.0892 16.4542 14.2575C16.6609 14.4257 16.814 14.6506 16.8948 14.9045C16.9757 15.1585 16.9807 15.4305 16.9093 15.6872C16.838 15.944 16.6933 16.1744 16.493 16.3502C14.3961 18.178 12.6499 19.1735 10.8752 19.1666C9.09549 19.1602 7.42624 18.1478 5.48245 16.3442C5.34328 16.2146 5.23234 16.0576 5.15655 15.8832C5.08077 15.7088 5.04177 15.5206 5.04199 15.3304C5.04133 14.9887 5.16675 14.6587 5.39425 14.4037C5.62175 14.1487 5.93533 13.9866 6.27491 13.9485V13.949Z" fill="black"/>
<path d="M14.6668 8.16667C14.6668 9.13913 14.2805 10.0718 13.5929 10.7594C12.9053 11.447 11.9726 11.8333 11.0002 11.8333C10.0277 11.8333 9.09507 11.447 8.40744 10.7594C7.7198 10.0718 7.3335 9.13913 7.3335 8.16667C7.3335 7.19421 7.7198 6.26157 8.40744 5.57394C9.09507 4.88631 10.0277 4.5 11.0002 4.5C11.9726 4.5 12.9053 4.88631 13.5929 5.57394C14.2805 6.26157 14.6668 7.19421 14.6668 8.16667Z" fill="black"/>
<path fill-rule="evenodd" clip-rule="evenodd" d="M11.0002 10.9167C11.7295 10.9167 12.429 10.6269 12.9447 10.1112C13.4604 9.59549 13.7502 8.89601 13.7502 8.16667C13.7502 7.43732 13.4604 6.73785 12.9447 6.22212C12.429 5.7064 11.7295 5.41667 11.0002 5.41667C10.2708 5.41667 9.57134 5.7064 9.05562 6.22212C8.53989 6.73785 8.25016 7.43732 8.25016 8.16667C8.25016 8.89601 8.53989 9.59549 9.05562 10.1112C9.57134 10.6269 10.2708 10.9167 11.0002 10.9167ZM11.0002 11.8333C11.9726 11.8333 12.9053 11.447 13.5929 10.7594C14.2805 10.0718 14.6668 9.13913 14.6668 8.16667C14.6668 7.19421 14.2805 6.26157 13.5929 5.57394C12.9053 4.88631 11.9726 4.5 11.0002 4.5C10.0277 4.5 9.09507 4.88631 8.40744 5.57394C7.7198 6.26157 7.3335 7.19421 7.3335 8.16667C7.3335 9.13913 7.7198 10.0718 8.40744 10.7594C9.09507 11.447 10.0277 11.8333 11.0002 11.8333Z" fill="black"/>
</g>
<defs>
<filter id="filter0_d_175_921" x="-2.1665" y="0.833252" width="26.3335" height="26.3335" filterUnits="userSpaceOnUse" color-interpolation-filters="sRGB">
<feFlood flood-opacity="0" result="BackgroundImageFix"/>
<feColorMatrix in="SourceAlpha" type="matrix" values="0 0 0 0 0 0 0 0 0 0 0 0 0 0 0 0 0 0 127 0" result="hardAlpha"/>
<feOffset dy="4"/>
<feGaussianBlur stdDeviation="2"/>
<feComposite in2="hardAlpha" operator="out"/>
<feColorMatrix type="matrix" values="0 0 0 0 0 0 0 0 0 0 0 0 0 0 0 0 0 0 0.25 0"/>
<feBlend mode="normal" in2="BackgroundImageFix" result="effect1_dropShadow_175_921"/>
<feBlend mode="normal" in="SourceGraphic" in2="effect1_dropShadow_175_921" result="shape"/>
</filter>
</defs>
</svg>
