<svg width="27" height="27" viewBox="0 0 27 27" fill="none" xmlns="http://www.w3.org/2000/svg">
<path d="M26.1875 6.25004C26.1875 5.28863 25.8056 4.3666 25.1258 3.68678C24.4459 3.00696 23.5239 2.62504 22.5625 2.62504H21.6562V1.74428C21.6562 1.2566 21.2813 0.838028 20.7936 0.813672C20.6711 0.807768 20.5486 0.826804 20.4337 0.869625C20.3187 0.912446 20.2136 0.978162 20.1248 1.06279C20.036 1.14742 19.9653 1.2492 19.917 1.36196C19.8687 1.47472 19.8438 1.59611 19.8438 1.71879V2.62504H7.15625V1.74428C7.15625 1.2566 6.78129 0.838028 6.29361 0.813672C6.17108 0.807768 6.04862 0.826804 5.93366 0.869625C5.8187 0.912446 5.71364 0.978162 5.62482 1.06279C5.53601 1.14742 5.46531 1.2492 5.41699 1.36196C5.36868 1.47472 5.34376 1.59611 5.34375 1.71879V2.62504H4.4375C3.47609 2.62504 2.55406 3.00696 1.87424 3.68678C1.19442 4.3666 0.8125 5.28863 0.8125 6.25004V6.92973C0.8125 6.98981 0.83637 7.04744 0.878859 7.08993C0.921347 7.13242 0.978974 7.15629 1.03906 7.15629H25.9609C26.021 7.15629 26.0787 7.13242 26.1211 7.08993C26.1636 7.04744 26.1875 6.98981 26.1875 6.92973V6.25004ZM0.8125 22.5625C0.8125 23.5239 1.19442 24.446 1.87424 25.1258C2.55406 25.8056 3.47609 26.1875 4.4375 26.1875H22.5625C23.5239 26.1875 24.4459 25.8056 25.1258 25.1258C25.8056 24.446 26.1875 23.5239 26.1875 22.5625V9.13871C26.1875 9.09364 26.1696 9.05042 26.1377 9.01856C26.1059 8.98669 26.0626 8.96879 26.0176 8.96879H0.982422C0.937356 8.96879 0.894136 8.98669 0.862269 9.01856C0.830403 9.05042 0.8125 9.09364 0.8125 9.13871V22.5625ZM20.2969 10.7813C20.5657 10.7813 20.8286 10.861 21.0521 11.0104C21.2757 11.1598 21.4499 11.3721 21.5528 11.6205C21.6557 11.8688 21.6826 12.1422 21.6301 12.4059C21.5777 12.6696 21.4482 12.9118 21.2581 13.1019C21.068 13.292 20.8258 13.4215 20.5621 13.4739C20.2984 13.5264 20.0251 13.4995 19.7767 13.3966C19.5283 13.2937 19.316 13.1194 19.1666 12.8959C19.0172 12.6723 18.9375 12.4095 18.9375 12.1407C18.9375 11.7801 19.0807 11.4344 19.3357 11.1794C19.5906 10.9245 19.9363 10.7813 20.2969 10.7813ZM20.2969 15.3125C20.5657 15.3125 20.8286 15.3923 21.0521 15.5416C21.2757 15.691 21.4499 15.9033 21.5528 16.1517C21.6557 16.4001 21.6826 16.6734 21.6301 16.9371C21.5777 17.2008 21.4482 17.443 21.2581 17.6331C21.068 17.8232 20.8258 17.9527 20.5621 18.0052C20.2984 18.0576 20.0251 18.0307 19.7767 17.9278C19.5283 17.8249 19.316 17.6507 19.1666 17.4271C19.0172 17.2036 18.9375 16.9408 18.9375 16.6719C18.9375 16.3114 19.0807 15.9656 19.3357 15.7107C19.5906 15.4558 19.9363 15.3125 20.2969 15.3125ZM15.7656 10.7813C16.0345 10.7813 16.2973 10.861 16.5209 11.0104C16.7444 11.1598 16.9186 11.3721 17.0215 11.6205C17.1244 11.8688 17.1513 12.1422 17.0989 12.4059C17.0464 12.6696 16.917 12.9118 16.7268 13.1019C16.5367 13.292 16.2945 13.4215 16.0308 13.4739C15.7671 13.5264 15.4938 13.4995 15.2454 13.3966C14.997 13.2937 14.7847 13.1194 14.6353 12.8959C14.486 12.6723 14.4062 12.4095 14.4062 12.1407C14.4062 11.7801 14.5495 11.4344 14.8044 11.1794C15.0593 10.9245 15.4051 10.7813 15.7656 10.7813ZM15.7656 15.3125C16.0345 15.3125 16.2973 15.3923 16.5209 15.5416C16.7444 15.691 16.9186 15.9033 17.0215 16.1517C17.1244 16.4001 17.1513 16.6734 17.0989 16.9371C17.0464 17.2008 16.917 17.443 16.7268 17.6331C16.5367 17.8232 16.2945 17.9527 16.0308 18.0052C15.7671 18.0576 15.4938 18.0307 15.2454 17.9278C14.997 17.8249 14.7847 17.6507 14.6353 17.4271C14.486 17.2036 14.4062 16.9408 14.4062 16.6719C14.4062 16.3114 14.5495 15.9656 14.8044 15.7107C15.0593 15.4558 15.4051 15.3125 15.7656 15.3125ZM15.7656 19.8438C16.0345 19.8438 16.2973 19.9235 16.5209 20.0729C16.7444 20.2223 16.9186 20.4346 17.0215 20.683C17.1244 20.9313 17.1513 21.2047 17.0989 21.4684C17.0464 21.7321 16.917 21.9743 16.7268 22.1644C16.5367 22.3545 16.2945 22.484 16.0308 22.5364C15.7671 22.5889 15.4938 22.5619 15.2454 22.4591C14.997 22.3562 14.7847 22.1819 14.6353 21.9584C14.486 21.7348 14.4062 21.472 14.4062 21.2032C14.4062 20.8426 14.5495 20.4969 14.8044 20.2419C15.0593 19.987 15.4051 19.8438 15.7656 19.8438ZM11.2344 15.3125C11.5032 15.3125 11.7661 15.3923 11.9896 15.5416C12.2132 15.691 12.3874 15.9033 12.4903 16.1517C12.5932 16.4001 12.6201 16.6734 12.5676 16.9371C12.5152 17.2008 12.3857 17.443 12.1956 17.6331C12.0055 17.8232 11.7633 17.9527 11.4996 18.0052C11.2359 18.0576 10.9626 18.0307 10.7142 17.9278C10.4658 17.8249 10.2535 17.6507 10.1041 17.4271C9.95473 17.2036 9.875 16.9408 9.875 16.6719C9.875 16.3114 10.0182 15.9656 10.2732 15.7107C10.5281 15.4558 10.8738 15.3125 11.2344 15.3125ZM11.2344 19.8438C11.5032 19.8438 11.7661 19.9235 11.9896 20.0729C12.2132 20.2223 12.3874 20.4346 12.4903 20.683C12.5932 20.9313 12.6201 21.2047 12.5676 21.4684C12.5152 21.7321 12.3857 21.9743 12.1956 22.1644C12.0055 22.3545 11.7633 22.484 11.4996 22.5364C11.2359 22.5889 10.9626 22.5619 10.7142 22.4591C10.4658 22.3562 10.2535 22.1819 10.1041 21.9584C9.95473 21.7348 9.875 21.472 9.875 21.2032C9.875 20.8426 10.0182 20.4969 10.2732 20.2419C10.5281 19.987 10.8738 19.8438 11.2344 19.8438ZM6.70312 15.3125C6.97198 15.3125 7.2348 15.3923 7.45835 15.5416C7.6819 15.691 7.85614 15.9033 7.95902 16.1517C8.06191 16.4001 8.08883 16.6734 8.03638 16.9371C7.98393 17.2008 7.85446 17.443 7.66435 17.6331C7.47424 17.8232 7.23202 17.9527 6.96833 18.0052C6.70463 18.0576 6.43131 18.0307 6.18291 17.9278C5.93452 17.8249 5.72222 17.6507 5.57285 17.4271C5.42348 17.2036 5.34375 16.9408 5.34375 16.6719C5.34375 16.3114 5.48697 15.9656 5.7419 15.7107C5.99683 15.4558 6.3426 15.3125 6.70312 15.3125ZM6.70312 19.8438C6.97198 19.8438 7.2348 19.9235 7.45835 20.0729C7.6819 20.2223 7.85614 20.4346 7.95902 20.683C8.06191 20.9313 8.08883 21.2047 8.03638 21.4684C7.98393 21.7321 7.85446 21.9743 7.66435 22.1644C7.47424 22.3545 7.23202 22.484 6.96833 22.5364C6.70463 22.5889 6.43131 22.5619 6.18291 22.4591C5.93452 22.3562 5.72222 22.1819 5.57285 21.9584C5.42348 21.7348 5.34375 21.472 5.34375 21.2032C5.34375 20.8426 5.48697 20.4969 5.7419 20.2419C5.99683 19.987 6.3426 19.8438 6.70312 19.8438Z" fill="#3D73DD"/>
</svg>
